<svg id="Layer_1" xmlns="http://www.w3.org/2000/svg" viewBox="0 0 297.6000061 297.6000061"><style>.st0{fill:#fff}</style><path id="bg" class="st0" d="M0 0h297.6v297.6H0z"/><path d="M165.688 110.345s-23.558-.492-24.767 7.048l-.246-37.9s7.54-8.501 17.25.246l-.246 22.597h46.155V73.654s-.112-38.37-54.344-36.2c-.023 0-51.57-4.362-55.708 36.2v151.33s-2.438 36.198 53.448 34.968c0 0 50.272 6.063 56.604-33.76V130.01s-3.893-19.666-38.146-19.666zm15.37 62.264c-14.923 0-22.977 4.139-22.977 4.139v18.882c-9.262-1.164-13.267 4.094-13.267 4.094v36.132h-1.476v1.521h-11.075v-1.364h-3.691v-3.736h1.41v-69.468l-.045-.961h-1.343v-2.819h1.32v-2.55h2.73v-1.21h12.148c3.11 9.04 17.831.985 17.831.985 12.887-8.815 18.435-.917 18.435-.917v17.272zm-35.081 10.873z"/><path d="M152.801 176.725l.068 2.506s2.572.447 2.886 2.058l-.962.917c.021-.022-2.753-4.183-8.816 1.276v10.627h10.851v-14.722l-1.521-2.662H152.8z"/></svg>